<svg version="1.1" id="Layer_1" xmlns="http://www.w3.org/2000/svg" xmlns:xlink="http://www.w3.org/1999/xlink" x="0px" y="0px"
	 width="100%" viewBox="0 0 500 500" enable-background="new 0 0 500 500" xml:space="preserve">
<path fill="#8C52FF" opacity="1.000000" stroke="none" 
	d="
M283.000000,501.000000 
	C188.666687,501.000000 94.833382,501.000000 1.000050,501.000000 
	C1.000034,334.333405 1.000034,167.666794 1.000017,1.000140 
	C167.666565,1.000093 334.333130,1.000093 500.999756,1.000047 
	C500.999847,167.666519 500.999847,334.333038 500.999939,500.999786 
	C428.500000,501.000000 356.000000,501.000000 283.000000,501.000000 
M349.143707,442.405060 
	C350.314270,443.719055 351.484863,445.033051 352.798157,446.507233 
	C381.136108,424.328003 409.145233,402.406158 437.371582,380.314270 
	C436.003937,378.442139 434.891449,376.821808 433.681763,375.277618 
	C404.022369,337.415741 374.381927,299.538910 344.620453,261.757416 
	C342.581696,259.169189 342.383270,257.361633 343.910126,254.404053 
	C359.657623,223.900070 375.227631,193.304474 390.837677,162.729599 
	C401.233185,142.368225 411.613556,121.999100 422.142914,101.354675 
	C390.045807,84.969315 358.213959,68.719353 326.010956,52.279922 
	C288.637177,125.486008 251.565308,198.100708 214.526443,270.650787 
	C259.412415,327.889313 304.077515,384.846222 349.143707,442.405060 
M68.657951,427.750244 
	C72.853363,431.728180 76.610146,436.354340 81.334267,439.550934 
	C91.600800,446.497925 103.401138,449.555847 115.659363,450.578369 
	C134.559921,452.154877 152.574799,449.192566 168.653809,438.541321 
	C178.658203,431.914001 184.464905,422.943756 184.122528,410.189545 
	C183.644547,392.383911 184.313965,374.546814 183.797226,356.743347 
	C183.655441,351.857971 182.265198,346.013062 179.268570,342.432159 
	C174.378632,336.588684 168.407593,330.755493 161.646362,327.532684 
	C136.994034,315.782074 111.646225,315.834229 86.849030,327.254456 
	C72.226379,333.988831 63.205482,344.819153 64.077972,362.456329 
	C64.875107,378.570068 63.918293,394.764801 64.430916,410.901672 
	C64.603958,416.349030 66.909943,421.728638 68.657951,427.750244 
M184.001587,108.500008 
	C184.001572,103.168083 183.746521,97.821426 184.053436,92.507225 
	C184.739090,80.635269 179.175461,72.017174 170.085327,65.356445 
	C147.060852,48.485432 105.906303,47.460701 81.797173,62.782650 
	C69.870865,70.362106 63.509575,80.485847 64.024734,95.087967 
	C64.576630,110.730980 64.277168,126.409866 64.107468,142.070480 
	C63.992077,152.719315 68.197388,161.236588 76.442871,167.593124 
	C80.619995,170.813293 85.319801,173.517090 90.112930,175.745239 
	C102.817551,181.651199 116.397263,182.501160 130.187119,182.054260 
	C142.779556,181.646149 154.617325,178.496552 165.387207,172.122513 
	C177.629395,164.877075 185.261429,154.867844 184.138077,139.481979 
	C183.412033,129.537674 184.001602,119.497314 184.001587,108.500008 
M170.629211,299.160858 
	C179.640274,292.248077 184.540848,283.565918 184.119247,271.752319 
	C183.620422,257.774078 183.642197,243.752289 184.114578,229.772232 
	C184.500870,218.339828 179.726883,209.939636 171.094589,203.153641 
	C147.638687,184.714569 102.748055,184.192154 78.766220,201.908173 
	C68.952431,209.157883 63.699749,218.222305 64.149651,230.790268 
	C64.644066,244.601990 64.523430,258.451447 64.184288,272.272522 
	C63.884945,284.471649 69.237450,293.357605 78.919861,300.042297 
	C104.277870,317.549286 143.802658,317.327118 170.629211,299.160858 
z"/>
<path fill="#F8BC32" opacity="1.000000" stroke="none" 
	d="
M348.943176,442.104095 
	C304.077515,384.846222 259.412415,327.889313 214.526443,270.650787 
	C251.565308,198.100708 288.637177,125.486008 326.010956,52.279922 
	C358.213959,68.719353 390.045807,84.969315 422.142914,101.354675 
	C411.613556,121.999100 401.233185,142.368225 390.837677,162.729599 
	C375.227631,193.304474 359.657623,223.900070 343.910126,254.404053 
	C342.383270,257.361633 342.581696,259.169189 344.620453,261.757416 
	C374.381927,299.538910 404.022369,337.415741 433.681763,375.277618 
	C434.891449,376.821808 436.003937,378.442139 437.371582,380.314270 
	C409.145233,402.406158 381.136108,424.328003 352.798157,446.507233 
	C351.484863,445.033051 350.314270,443.719055 348.943176,442.104095 
z"/>
<path fill="#E5734A" opacity="1.000000" stroke="none" 
	d="
M68.449539,427.444702 
	C66.909943,421.728638 64.603958,416.349030 64.430916,410.901672 
	C63.918293,394.764801 64.875107,378.570068 64.077972,362.456329 
	C63.205482,344.819153 72.226379,333.988831 86.849030,327.254456 
	C111.646225,315.834229 136.994034,315.782074 161.646362,327.532684 
	C168.407593,330.755493 174.378632,336.588684 179.268570,342.432159 
	C182.265198,346.013062 183.655441,351.857971 183.797226,356.743347 
	C184.313965,374.546814 183.644547,392.383911 184.122528,410.189545 
	C184.464905,422.943756 178.658203,431.914001 168.653809,438.541321 
	C152.574799,449.192566 134.559921,452.154877 115.659363,450.578369 
	C103.401138,449.555847 91.600800,446.497925 81.334267,439.550934 
	C76.610146,436.354340 72.853363,431.728180 68.449539,427.444702 
z"/>
<path fill="#58A8E1" opacity="1.000000" stroke="none" 
	d="
M184.001587,109.000000 
	C184.001602,119.497314 183.412033,129.537674 184.138077,139.481979 
	C185.261429,154.867844 177.629395,164.877075 165.387207,172.122513 
	C154.617325,178.496552 142.779556,181.646149 130.187119,182.054260 
	C116.397263,182.501160 102.817551,181.651199 90.112930,175.745239 
	C85.319801,173.517090 80.619995,170.813293 76.442871,167.593124 
	C68.197388,161.236588 63.992077,152.719315 64.107468,142.070480 
	C64.277168,126.409866 64.576630,110.730980 64.024734,95.087967 
	C63.509575,80.485847 69.870865,70.362106 81.797173,62.782650 
	C105.906303,47.460701 147.060852,48.485432 170.085327,65.356445 
	C179.175461,72.017174 184.739090,80.635269 184.053436,92.507225 
	C183.746521,97.821426 184.001572,103.168083 184.001587,109.000000 
z"/>
<path fill="#C9E166" opacity="1.000000" stroke="none" 
	d="
M170.343384,299.376526 
	C143.802658,317.327118 104.277870,317.549286 78.919861,300.042297 
	C69.237450,293.357605 63.884945,284.471649 64.184288,272.272522 
	C64.523430,258.451447 64.644066,244.601990 64.149651,230.790268 
	C63.699749,218.222305 68.952431,209.157883 78.766220,201.908173 
	C102.748055,184.192154 147.638687,184.714569 171.094589,203.153641 
	C179.726883,209.939636 184.500870,218.339828 184.114578,229.772232 
	C183.642197,243.752289 183.620422,257.774078 184.119247,271.752319 
	C184.540848,283.565918 179.640274,292.248077 170.343384,299.376526 
z"/>
</svg>